Coordinates
version=1
nRows=4
nColumns=107
inDegrees=yes

Units are S.I. units (second, meters, Newtons, ...)
If the header above contains a line with 'inDegrees', this indicates whether rotational values are in degrees (yes) or radians (no).

endheader
time	sternoclavicular_r2	sternoclavicular_r3	unrotscap_r3	unrotscap_r2	acromioclavicular_r2	acromioclavicular_r3	acromioclavicular_r1	unrothum_r1	unrothum_r3	unrothum_r2	elv_angle	shoulder_elv	shoulder1_r2	shoulder_rot	elbow_flexion	pro_sup	deviation	flexion	proximal_distal_r1	proximal_distal_r3	cmc_flexion	cmc_abduction	mp_flexion	ip_flexion	mcp2_flexion	mcp2_abduction	pm2_flexion	md2_flexion	mcp3_flexion	mcp3_abduction	pm3_flexion	md3_flexion	mcp4_flexion	mcp4_abduction	pm4_flexion	md4_flexion	mcp5_flexion	mcp5_abduction	pm5_flexion	md5_flexion	bicpt_tx	bicpt_ty	bicpt_tz	bicpt2_tx	bicpt2_ty	bicpt2_tz	ptpt_tx	ptpt_ty	ptpt_tz	FCUpt_tx	FCUpt_ty	FCUpt_tz	EDCpt_tx	EDCpt_ty	EDCpt_tz	APLpt_tx	APLpt_ty	APLpt_tz	FPLpt_tx	FPLpt_ty	FPLpt_tz	FPLpt2_tx	FPLpt2_ty	FPLpt2_tz	PEC1pt2_tx	PEC1pt2_ty	PEC1pt2_tz	PEC1pt3_tx	PEC1pt3_ty	PEC1pt3_tz	PEC2pt2_tx	PEC2pt2_ty	PEC2pt2_tz	PEC2pt3_tx	PEC2pt3_ty	PEC2pt3_tz	PEC3pt2_tx	PEC3pt2_ty	PEC3pt2_tz	PEC3pt3_tx	PEC3pt3_ty	PEC3pt3_tz	DELT2pt2a_tx	DELT2pt2a_ty	DELT2pt2a_tz	DELT2pt2_tx	DELT2pt2_ty	DELT2pt2_tz	LAT1pt2_tx	LAT1pt2_ty	LAT1pt2_tz	LAT1pt3_tx	LAT1pt3_ty	LAT1pt3_tz	LAT2pt2_tx	LAT2pt2_ty	LAT2pt2_tz	LAT2pt3_tx	LAT2pt3_ty	LAT2pt3_tz	LAT3pt2_tx	LAT3pt2_ty	LAT3pt2_tz	LAT3pt3_tx	LAT3pt3_ty	LAT3pt3_tz
      1.20000000	     -0.32070809	      0.13583681	     -0.13583681	      0.32070809	     -0.06493686	      0.52479689	      0.23589259	     -0.23589259	     -0.52479689	      0.06493686	    100.03628806	     75.93049007	     -1.74596260	    -28.96547060	     28.82978919	     68.11144261	      0.34851458	     -0.72678738	      0.37356563	     -0.36339369	     39.09318582	     -9.69630342	     -2.49857486	      9.54880413	    101.69089508	     12.56006559	     82.28841368	     71.41033662	     97.48993148	      0.69212363	     84.30674891	     52.90598536	    100.38166393	    -13.44701097	     91.74217977	     43.33322047	    102.22469838	    -14.17765366	     89.74421532	      5.52732782	      0.00085360	     -0.03090433	     -0.00483224	      0.01572300	     -0.01803175	     -0.00391510	      0.00251733	     -0.06815421	     -0.00553674	      0.01073241	     -0.18279809	     -0.00028842	     -0.00817335	      0.00264573	     -0.00026953	      0.00030125	      0.00012050	      0.00060249	      0.00038560	      0.00115679	      0.00065069	     -0.00001145	     -0.00012830	     -0.00015396	      0.00248883	      0.00873201	      0.00607444	     -0.00814144	      0.01965758	     -0.01864517	      0.00248883	      0.00873201	      0.00607444	      0.00054839	      0.01822333	     -0.00957569	      0.00393898	      0.00485576	      0.01594569	      0.00000000	      0.00771015	      0.00000000	     -0.00712904	     -0.03294542	     -0.00635698	      0.01841257	     -0.00072193	     -0.00700136	     -0.00088586	      0.01484864	     -0.00607444	      0.00244665	      0.02142929	     -0.01771713	     -0.00594789	      0.01286601	     -0.00544169	     -0.01240199	      0.02716626	     -0.03041441	     -0.02328537	      0.01438462	     -0.00729777	     -0.01543921	      0.03138463	     -0.03800746
      1.23333333	     -0.32067838	      0.13582423	     -0.13582423	      0.32067838	     -0.06493085	      0.52474829	      0.23587074	     -0.23587074	     -0.52474829	      0.06493085	    100.05203903	     75.92345758	     -1.74623750	    -28.95661035	     28.83613824	     68.11512159	      0.34848632	     -0.72678300	      0.37354328	     -0.36339150	     39.09220458	     -9.69511738	     -2.49936636	      9.54852036	    101.69160726	     12.56027250	     82.28831150	     71.41016524	     97.49119351	      0.69244973	     84.30737798	     52.90637047	    100.38190326	    -13.44676820	     91.74308840	     43.33353271	    102.22383654	    -14.17731360	     89.74481628	      5.52735880	      0.00085381	     -0.03090506	     -0.00483236	      0.01572274	     -0.01803348	     -0.00391455	      0.00251706	     -0.06815438	     -0.00553704	      0.01073282	     -0.18279798	     -0.00028836	     -0.00817380	      0.00264592	     -0.00026962	      0.00030125	      0.00012050	      0.00060249	      0.00038560	      0.00115679	      0.00065069	     -0.00001144	     -0.00012830	     -0.00015397	      0.00248860	      0.00873120	      0.00607388	     -0.00814069	      0.01965576	     -0.01864344	      0.00248860	      0.00873120	      0.00607388	      0.00054834	      0.01822165	     -0.00957480	      0.00393871	      0.00485531	      0.01594504	      0.00000000	      0.00770871	      0.00000000	     -0.00712838	     -0.03294237	     -0.00635579	      0.01840820	     -0.00072164	     -0.00699746	     -0.00088577	      0.01484727	     -0.00607388	      0.00244642	      0.02142731	     -0.01771549	     -0.00594734	      0.01286482	     -0.00544119	     -0.01240084	      0.02716375	     -0.03041159	     -0.02328321	      0.01438329	     -0.00729709	     -0.01543778	      0.03138172	     -0.03800394
      1.26666667	     -0.31431332	      0.13312829	     -0.13312829	      0.31431332	     -0.06364205	      0.51433269	      0.23118901	     -0.23118901	     -0.51433269	      0.06364205	    101.40811616	     74.41647272	     -1.76990552	    -36.65823100	     30.27121457	     75.75769481	      0.30075679	     -0.72337481	      0.33413156	     -0.36168741	     39.03212047	     -9.82301744	     -3.42198596	      9.18839883	     99.93015097	     12.72504365	     82.37274036	     69.20350732	     95.85238008	      1.18674634	     84.48455742	     55.33087584	     98.36222423	    -13.31914196	     91.35404748	     46.26317945	     99.32940413	    -14.13494879	     90.67194048	      5.50835424	      0.00090128	     -0.03106954	     -0.00485885	      0.01517866	     -0.01842332	     -0.00275648	      0.00195236	     -0.06851953	     -0.00615269	      0.01157759	     -0.18256969	     -0.00015881	     -0.00909090	      0.00303214	     -0.00045676	      0.00030191	      0.00012076	      0.00060382	      0.00038645	      0.00115934	      0.00065213	     -0.00001150	     -0.00012941	     -0.00015529	      0.00243921	      0.00855790	      0.00595332	     -0.00797911	      0.01926561	     -0.01827339	      0.00243921	      0.00855790	      0.00595332	      0.00053745	      0.01785997	     -0.00938475	      0.00388111	      0.00475894	      0.01580196	      0.00000000	      0.00740374	      0.00000000	     -0.00698689	     -0.03228851	     -0.00610254	      0.02153317	     -0.00099014	     -0.01099242	     -0.00086819	      0.01455257	     -0.00595332	      0.00239787	      0.02100200	     -0.01736386	     -0.00582930	      0.01260947	     -0.00533319	     -0.01215470	      0.02662458	     -0.02980796	     -0.02282107	      0.01409780	     -0.00715226	     -0.01513136	      0.03075883	     -0.03724961
      1.30000000	     -0.31697260	      0.13425463	     -0.13425463	      0.31697260	     -0.06418050	      0.51868425	      0.23314500	     -0.23314500	     -0.51868425	      0.06418050	    100.53997492	     75.04608029	     -1.75475359	    -32.75783129	     30.12398169	     72.52462033	      0.31595451	     -0.69640857	      0.34708606	     -0.34820429	     38.75506753	     -9.72259839	     -4.99273283	      9.28944810	     97.36501017	     12.74127903	     81.77378210	     66.99266155	     93.58921206	      1.39445626	     84.22375269	     54.45792706	     96.07260746	    -13.26920053	     90.11697526	     45.95509348	     96.92818988	    -14.11292171	     89.96578458	      5.52879681	      0.00089641	     -0.03105267	     -0.00485613	      0.01542513	     -0.01838333	     -0.00325638	      0.00219125	     -0.06836506	     -0.00589225	      0.01121802	     -0.18266829	     -0.00021899	     -0.00870293	      0.00286655	     -0.00037373	      0.00030638	      0.00012255	      0.00061277	      0.00039217	      0.00117651	      0.00066179	     -0.00001174	     -0.00013446	     -0.00016135	      0.00245985	      0.00863031	      0.00600369	     -0.00804661	      0.01942861	     -0.01842800	      0.00245985	      0.00863031	      0.00600369	      0.00054200	      0.01801107	     -0.00946415	      0.00390528	      0.00479920	      0.01586241	      0.00000000	      0.00753039	      0.00000000	     -0.00704600	     -0.03256169	     -0.00620772	      0.02004972	     -0.00085227	     -0.00888660	     -0.00087554	      0.01467569	     -0.00600369	      0.00241815	      0.02117969	     -0.01751077	     -0.00587861	      0.01271615	     -0.00537831	     -0.01225754	      0.02684984	     -0.03006015	     -0.02301415	      0.01421707	     -0.00721277	     -0.01525938	      0.03101907	     -0.03756476
